<svg class="stroke-[#227900]" width="15" height="15" viewBox="0 0 15 15" fill="none" xmlns="http://www.w3.org/2000/svg">
<path d="M11.0875 13.2625C10.5375 13.425 9.88748 13.5 9.12498 13.5H5.37498C4.61248 13.5 3.96248 13.425 3.41248 13.2625C3.54998 11.6375 5.21873 10.3562 7.24998 10.3562C9.28123 10.3562 10.95 11.6375 11.0875 13.2625V13.2625Z" stroke="white" stroke-width="1.5" stroke-linecap="round" stroke-linejoin="round"/>
<path d="M9.125 1H5.375C2.25 1 1 2.25 1 5.375V9.125C1 11.4875 1.7125 12.7813 3.4125 13.2625C3.55 11.6375 5.21875 10.3562 7.25 10.3562C9.28125 10.3562 10.95 11.6375 11.0875 13.2625C12.7875 12.7813 13.5 11.4875 13.5 9.125V5.375C13.5 2.25 12.25 1 9.125 1ZM7.25 8.60625C6.0125 8.60625 5.0125 7.6 5.0125 6.3625C5.0125 5.125 6.0125 4.125 7.25 4.125C8.4875 4.125 9.4875 5.125 9.4875 6.3625C9.4875 7.6 8.4875 8.60625 7.25 8.60625Z" stroke="white" stroke-width="1.5" stroke-linecap="round" stroke-linejoin="round"/>
<path d="M9.48745 6.3625C9.48745 7.6 8.48745 8.60625 7.24995 8.60625C6.01245 8.60625 5.01245 7.6 5.01245 6.3625C5.01245 5.125 6.01245 4.125 7.24995 4.125C8.48745 4.125 9.48745 5.125 9.48745 6.3625Z" stroke="white" stroke-width="1.5" stroke-linecap="round" stroke-linejoin="round"/>
</svg>
