<svg width="18" height="20" viewBox="0 0 18 20" fill="none" xmlns="http://www.w3.org/2000/svg">
<path d="M10.9525 9.39402C11.0385 9.0545 11.0348 8.69848 10.9418 8.36081C10.8488 8.02315 10.6697 7.71542 10.4221 7.46777C10.1744 7.22012 9.86671 7.04103 9.52905 6.94805C9.19138 6.85507 8.83535 6.85139 8.49584 6.93735C7.79 7.11152 7.2125 7.68902 7.03834 8.39485C6.95237 8.73437 6.95605 9.0904 7.04903 9.42806C7.14201 9.76573 7.3211 10.0735 7.56875 10.3211C7.8164 10.5688 8.12413 10.7478 8.46179 10.8408C8.79946 10.9338 9.15549 10.9375 9.495 10.8515C10.21 10.6774 10.7875 10.0999 10.9525 9.39402Z" fill="#227900"/>
<path d="M3.51834 15.4724C3.35334 15.4724 3.17917 15.4083 3.05084 15.2891C2.17054 14.4717 1.46801 13.4817 0.987002 12.3809C0.505996 11.2801 0.256822 10.092 0.255005 8.89075C0.255005 4.06909 4.17834 0.145752 9.00001 0.145752C13.8217 0.145752 17.745 4.06909 17.745 8.89075C17.745 11.3291 16.7642 13.5841 14.9858 15.2616C14.7108 15.5183 14.2708 15.5091 14.0142 15.2341C13.7575 14.9591 13.7667 14.5191 14.0417 14.2624C14.7795 13.5781 15.3673 12.7483 15.7681 11.8253C16.1688 10.9023 16.3738 9.90617 16.37 8.89992C16.37 4.83909 13.0608 1.52992 9.00001 1.52992C4.93917 1.52992 1.63 4.83909 1.63 8.89992C1.63 10.9716 2.46417 12.8783 3.98584 14.2899C4.26084 14.5466 4.27917 14.9866 4.02251 15.2616C3.88899 15.3958 3.70768 15.4717 3.51834 15.4724V15.4724Z" fill="#227900"/>
<path d="M12.6667 13.0242C12.5329 13.0241 12.4022 12.9848 12.2906 12.9111C12.179 12.8374 12.0914 12.7327 12.0387 12.6097C11.986 12.4868 11.9706 12.3512 11.9942 12.2195C12.0178 12.0879 12.0795 11.9661 12.1717 11.8692C12.9325 11.0625 13.3542 9.9992 13.3542 8.8992C13.3542 6.49753 11.4017 4.5542 9.00915 4.5542C7.85753 4.55662 6.75377 5.01517 5.93945 5.8295C5.12513 6.64382 4.66658 7.74758 4.66415 8.8992C4.66415 10.0084 5.08582 11.0625 5.84665 11.8692C6.10332 12.1442 6.09415 12.5842 5.81915 12.8409C5.54415 13.1067 5.10415 13.0884 4.84749 12.8134C3.8481 11.755 3.29068 10.3549 3.28915 8.8992C3.28915 5.74587 5.85582 3.1792 9.00915 3.1792C12.1625 3.1792 14.7292 5.74587 14.7292 8.8992C14.7292 10.3567 14.1792 11.75 13.1708 12.8134C13.0373 12.9476 12.856 13.0234 12.6667 13.0242V13.0242ZM7.44165 14.2718L6.12165 15.9126C5.07665 17.2234 6.01165 19.1668 7.67999 19.1668H10.3108C11.9883 19.1668 12.9233 17.2234 11.8692 15.9218L10.5492 14.2809C10.3645 14.0458 10.129 13.8554 9.86028 13.7243C9.59156 13.5931 9.29664 13.5245 8.99762 13.5237C8.69861 13.5228 8.40329 13.5896 8.1338 13.7192C7.86432 13.8488 7.62769 14.0377 7.44165 14.2718V14.2718Z" fill="#227900"/>
</svg>
