<svg width="15" height="15" viewBox="0 0 15 15" fill="none" xmlns="http://www.w3.org/2000/svg">
<g clip-path="url(#clip0_192_237)">
<path d="M5.50627 1.25L3.24377 3.51875M9.49377 1.25L11.7563 3.51875" stroke="#227900" stroke-width="1.5" stroke-miterlimit="10" stroke-linecap="round" stroke-linejoin="round"/>
<path d="M1.25 4.90625C1.25 3.75 1.86875 3.65625 2.6375 3.65625H12.3625C13.1313 3.65625 13.75 3.75 13.75 4.90625C13.75 6.25 13.1313 6.15625 12.3625 6.15625H2.6375C1.86875 6.15625 1.25 6.25 1.25 4.90625Z" stroke="#227900" stroke-width="1.5"/>
<path d="M6.1 8.75V10.9687M8.975 8.75V10.9687M2.1875 6.25L3.06875 11.65C3.26875 12.8625 3.75 13.75 5.5375 13.75H9.30625C11.25 13.75 11.5375 12.9 11.7625 11.725L12.8125 6.25" stroke="#227900" stroke-width="1.5" stroke-linecap="round"/>
</g>
<defs>
<clipPath id="clip0_192_237">
<rect width="15" height="15" fill="white"/>
</clipPath>
</defs>
</svg>
