<svg width="24" height="24" viewBox="0 0 24 24" fill="none" xmlns="http://www.w3.org/2000/svg">
<path opacity="0.4" d="M16.19 8.858C15.8 8.858 15.49 8.548 15.49 8.158V6.878C15.4907 6.39093 15.3893 5.90912 15.1922 5.4637C14.9952 5.01828 14.7068 4.61916 14.3459 4.29214C13.9849 3.96511 13.5594 3.71745 13.0967 3.56515C12.6341 3.41286 12.1446 3.35932 11.66 3.408C9.97999 3.568 8.50999 5.278 8.50999 7.058V7.958C8.50999 8.348 8.19999 8.658 7.80999 8.658C7.41999 8.658 7.10999 8.348 7.10999 7.958V7.058C7.10999 4.558 9.12999 2.248 11.52 2.018C12.91 1.888 14.25 2.328 15.28 3.268C16.3 4.188 16.88 5.508 16.88 6.878V8.158C16.88 8.548 16.57 8.858 16.19 8.858Z" fill="black"/>
<path d="M19.96 8.958C19.12 8.028 17.74 7.578 15.72 7.578H8.27999C6.25999 7.578 4.87999 8.028 4.03999 8.958C3.06999 10.038 3.09999 11.478 3.20999 12.478L3.90999 18.048C4.11999 19.998 4.90999 21.998 9.20999 21.998H14.79C19.09 21.998 19.88 19.998 20.09 18.058L20.79 12.468C20.9 11.478 20.92 10.038 19.96 8.958ZM8.41999 13.148H8.40999C7.85999 13.148 7.40999 12.698 7.40999 12.148C7.40999 11.598 7.85999 11.148 8.40999 11.148C8.96999 11.148 9.41999 11.598 9.41999 12.148C9.41999 12.698 8.96999 13.148 8.41999 13.148ZM15.42 13.148H15.41C14.86 13.148 14.41 12.698 14.41 12.148C14.41 11.598 14.86 11.148 15.41 11.148C15.97 11.148 16.42 11.598 16.42 12.148C16.42 12.698 15.97 13.148 15.42 13.148Z" fill="#227900"/>
</svg>
