<svg width="24" height="24" viewBox="0 0 24 24" fill="none" xmlns="http://www.w3.org/2000/svg">
<path opacity="0.4" d="M16.19 8.858C15.8 8.858 15.49 8.548 15.49 8.158V6.878C15.4907 6.39093 15.3893 5.90912 15.1922 5.4637C14.9952 5.01828 14.7068 4.61916 14.3459 4.29214C13.9849 3.96511 13.5594 3.71745 13.0967 3.56515C12.6341 3.41286 12.1446 3.35932 11.66 3.408C9.97999 3.568 8.50999 5.278 8.50999 7.058V7.958C8.50999 8.348 8.19999 8.658 7.80999 8.658C7.41999 8.658 7.10999 8.348 7.10999 7.958V7.058C7.10999 4.558 9.12999 2.248 11.52 2.018C12.91 1.888 14.25 2.328 15.28 3.268C16.3 4.188 16.88 5.508 16.88 6.878V8.158C16.88 8.548 16.57 8.858 16.19 8.858Z" fill="black"/>
<path d="M19.96 8.958C19.12 8.028 17.74 7.578 15.72 7.578H8.27999C6.25999 7.578 4.87999 8.028 4.03999 8.958C3.06999 10.038 3.09999 11.478 3.20999 12.478L3.90999 18.048C4.11999 19.998 4.90999 21.998 9.20999 21.998H14.79C19.09 21.998 19.88 19.998 20.09 18.058L20.79 12.468C20.9 11.478 20.93 10.038 19.96 8.958ZM12 18.578C9.90999 18.578 8.20999 16.878 8.20999 14.788C8.20999 12.698 9.90999 10.998 12 10.998C14.09 10.998 15.79 12.698 15.79 14.788C15.79 16.878 14.09 18.578 12 18.578Z" fill="#227900"/>
<path opacity="0.4" d="M12 18.58C12.4977 18.5801 12.9906 18.4821 13.4504 18.2917C13.9103 18.1013 14.3281 17.8222 14.6801 17.4703C15.0321 17.1184 15.3113 16.7006 15.5018 16.2408C15.6923 15.781 15.7904 15.2882 15.7905 14.7905C15.7906 14.2928 15.6926 13.7999 15.5022 13.3401C15.3118 12.8802 15.0327 12.4624 14.6808 12.1104C14.3289 11.7584 13.9111 11.4792 13.4513 11.2887C12.9915 11.0982 12.4987 11.0001 12.001 11C10.9958 11 10.0318 11.3993 9.32106 12.1101C8.6103 12.8208 8.211 13.7848 8.211 14.79C8.211 15.7952 8.6103 16.7592 9.32106 17.4699C10.0318 18.1807 10.9958 18.58 12.001 18.58H12Z" fill="white"/>
<path d="M13.6 15.31L13.07 14.78L13.57 14.28C13.86 13.99 13.86 13.51 13.57 13.22C13.4289 13.0805 13.2384 13.0023 13.04 13.0023C12.8416 13.0023 12.6511 13.0805 12.51 13.22L12.01 13.72L11.48 13.19C11.3389 13.0505 11.1484 12.9723 10.95 12.9723C10.7516 12.9723 10.5611 13.0505 10.42 13.19C10.13 13.48 10.13 13.96 10.42 14.25L10.95 14.78L10.4 15.33C10.11 15.62 10.11 16.1 10.4 16.39C10.55 16.54 10.74 16.61 10.93 16.61C11.12 16.61 11.31 16.54 11.46 16.39L12.01 15.84L12.54 16.37C12.69 16.52 12.88 16.59 13.07 16.59C13.26 16.59 13.45 16.52 13.6 16.37C13.89 16.08 13.89 15.61 13.6 15.31Z" fill="#227900"/>
</svg>
