<svg width="12" height="13" viewBox="0 0 12 13" fill="none" xmlns="http://www.w3.org/2000/svg">
<path d="M9.5 1.26667H8.86667V0.633334C8.86667 0.465363 8.79994 0.304272 8.68117 0.185499C8.5624 0.066726 8.40131 0 8.23334 0C8.06537 0 7.90428 0.066726 7.7855 0.185499C7.66673 0.304272 7.6 0.465363 7.6 0.633334V1.26667H3.8V0.633334C3.8 0.465363 3.73328 0.304272 3.6145 0.185499C3.49573 0.066726 3.33464 0 3.16667 0C2.9987 0 2.83761 0.066726 2.71883 0.185499C2.60006 0.304272 2.53333 0.465363 2.53333 0.633334V1.26667H1.9C1.39609 1.26667 0.912817 1.46685 0.556497 1.82316C0.200178 2.17948 0 2.66276 0 3.16667V10.7667C0 11.2706 0.200178 11.7539 0.556497 12.1102C0.912817 12.4665 1.39609 12.6667 1.9 12.6667H9.5C10.0039 12.6667 10.4872 12.4665 10.8435 12.1102C11.1998 11.7539 11.4 11.2706 11.4 10.7667V3.16667C11.4 2.66276 11.1998 2.17948 10.8435 1.82316C10.4872 1.46685 10.0039 1.26667 9.5 1.26667V1.26667ZM1.9 2.53333H2.53333V3.16667C2.53333 3.33464 2.60006 3.49573 2.71883 3.6145C2.83761 3.73328 2.9987 3.8 3.16667 3.8C3.33464 3.8 3.49573 3.73328 3.6145 3.6145C3.73328 3.49573 3.8 3.33464 3.8 3.16667V2.53333H7.6V3.16667C7.6 3.33464 7.66673 3.49573 7.7855 3.6145C7.90428 3.73328 8.06537 3.8 8.23334 3.8C8.40131 3.8 8.5624 3.73328 8.68117 3.6145C8.79994 3.49573 8.86667 3.33464 8.86667 3.16667V2.53333H9.5C9.66797 2.53333 9.82907 2.60006 9.94784 2.71883C10.0666 2.83761 10.1333 2.9987 10.1333 3.16667V5.7H1.26667V3.16667C1.26667 2.9987 1.33339 2.83761 1.45217 2.71883C1.57094 2.60006 1.73203 2.53333 1.9 2.53333V2.53333ZM9.5 11.4H1.9C1.73203 11.4 1.57094 11.3333 1.45217 11.2145C1.33339 11.0957 1.26667 10.9346 1.26667 10.7667V6.96667H10.1333V10.7667C10.1333 10.9346 10.0666 11.0957 9.94784 11.2145C9.82907 11.3333 9.66797 11.4 9.5 11.4Z" fill="#9F9F9F"/>
<path d="M3.16666 9.5C3.51644 9.5 3.79999 9.21645 3.79999 8.86667C3.79999 8.51689 3.51644 8.23334 3.16666 8.23334C2.81688 8.23334 2.53333 8.51689 2.53333 8.86667C2.53333 9.21645 2.81688 9.5 3.16666 9.5Z" fill="#9F9F9F"/>
<path d="M8.23332 8.23334H5.69998C5.53201 8.23334 5.37092 8.30006 5.25215 8.41884C5.13338 8.53761 5.06665 8.6987 5.06665 8.86667C5.06665 9.03464 5.13338 9.19573 5.25215 9.31451C5.37092 9.43328 5.53201 9.5 5.69998 9.5H8.23332C8.40129 9.5 8.56238 9.43328 8.68115 9.31451C8.79993 9.19573 8.86665 9.03464 8.86665 8.86667C8.86665 8.6987 8.79993 8.53761 8.68115 8.41884C8.56238 8.30006 8.40129 8.23334 8.23332 8.23334Z" fill="#9F9F9F"/>
</svg>
