<svg width="14" height="13" viewBox="0 0 14 13" fill="none" xmlns="http://www.w3.org/2000/svg">
<path d="M13.356 2.80041C13.235 2.59084 13.0618 2.4162 12.8533 2.29352C12.6447 2.17084 12.4079 2.10431 12.166 2.10041H3.206L2.8 0.518411C2.75898 0.365697 2.66746 0.231371 2.54035 0.137311C2.41325 0.0432504 2.25803 -0.00500273 2.1 0.000410536H0.7C0.514348 0.000410536 0.336301 0.0741603 0.205025 0.205436C0.0737498 0.336711 0 0.514759 0 0.700411C0 0.886062 0.0737498 1.06411 0.205025 1.19539C0.336301 1.32666 0.514348 1.40041 0.7 1.40041H1.568L3.5 8.58241C3.54102 8.73512 3.63254 8.86945 3.75965 8.96351C3.88675 9.05757 4.04197 9.10582 4.2 9.10041H10.5C10.6293 9.10002 10.7559 9.06384 10.8659 8.99588C10.9758 8.92793 11.0648 8.83085 11.123 8.71541L13.419 4.12341C13.5185 3.91482 13.5648 3.68484 13.5539 3.45399C13.5429 3.22314 13.4749 2.9986 13.356 2.80041V2.80041Z" fill="white"/>
<path d="M3.84974 12.6004C4.42964 12.6004 4.89974 12.1303 4.89974 11.5504C4.89974 10.9705 4.42964 10.5004 3.84974 10.5004C3.26984 10.5004 2.79974 10.9705 2.79974 11.5504C2.79974 12.1303 3.26984 12.6004 3.84974 12.6004Z" fill="white"/>
<path d="M10.8498 12.6004C11.4297 12.6004 11.8998 12.1303 11.8998 11.5504C11.8998 10.9705 11.4297 10.5004 10.8498 10.5004C10.2699 10.5004 9.79984 10.9705 9.79984 11.5504C9.79984 12.1303 10.2699 12.6004 10.8498 12.6004Z" fill="white"/>
</svg>
