<svg width="15" height="15" viewBox="0 0 15 15" fill="none" xmlns="http://www.w3.org/2000/svg">
<path d="M5 7.625H9.375M5 10.125H7.7375M6.25 3.75H8.75C10 3.75 10 3.125 10 2.5C10 1.25 9.375 1.25 8.75 1.25H6.25C5.625 1.25 5 1.25 5 2.5C5 3.75 5.625 3.75 6.25 3.75Z" stroke="white" stroke-width="1.5" stroke-miterlimit="10" stroke-linecap="round" stroke-linejoin="round"/>
<path d="M10 2.51251C12.0812 2.62501 13.125 3.39376 13.125 6.25001V10C13.125 12.5 12.5 13.75 9.375 13.75H5.625C2.5 13.75 1.875 12.5 1.875 10V6.25001C1.875 3.40001 2.91875 2.62501 5 2.51251" stroke="white" stroke-width="1.5" stroke-miterlimit="10" stroke-linecap="round" stroke-linejoin="round"/>
</svg>
