<svg width="22" height="22" viewBox="0 0 22 22" fill="none" xmlns="http://www.w3.org/2000/svg">
<path d="M14.8408 1.83333H7.15915C3.82248 1.83333 1.83331 3.8225 1.83331 7.15917V14.8317C1.83331 18.1775 3.82248 20.1667 7.15915 20.1667H14.8316C18.1683 20.1667 20.1575 18.1775 20.1575 14.8408V7.15917C20.1666 3.8225 18.1775 1.83333 14.8408 1.83333ZM5.93081 8.50667C5.80296 8.37729 5.73125 8.20273 5.73125 8.02083C5.73125 7.83894 5.80296 7.66438 5.93081 7.535C7.11331 6.3525 9.04748 6.3525 10.2391 7.535C10.505 7.80083 10.505 8.24083 10.2391 8.50667C10.1016 8.64417 9.92748 8.70833 9.75331 8.70833C9.57915 8.70833 9.40498 8.64417 9.26748 8.50667C8.61665 7.85583 7.55331 7.85583 6.90248 8.50667C6.63665 8.78167 6.19665 8.78167 5.93081 8.50667ZM14.3 16.5733H7.69998C7.05831 16.5733 6.53581 16.0508 6.53581 15.4C6.53581 12.9342 8.54331 10.9267 11.0091 10.9267C13.475 10.9267 15.4825 12.9342 15.4825 15.4C15.4733 16.0417 14.9416 16.5733 14.3 16.5733ZM16.0691 8.50667C15.8033 8.7725 15.3633 8.7725 15.0975 8.50667C14.4466 7.85583 13.3833 7.85583 12.7325 8.50667C12.595 8.64417 12.4208 8.70833 12.2466 8.70833C12.0725 8.70833 11.8983 8.64417 11.7608 8.50667C11.633 8.37729 11.5613 8.20273 11.5613 8.02083C11.5613 7.83894 11.633 7.66438 11.7608 7.535C12.9433 6.3525 14.8775 6.3525 16.0691 7.535C16.335 7.81 16.335 8.24083 16.0691 8.50667Z" fill="#227900"/>
</svg>
