<svg width="22" height="22" viewBox="0 0 22 22" fill="none" xmlns="http://www.w3.org/2000/svg">
<g clip-path="url(#clip0_192_228)">
<path d="M14.8408 1.83333H7.15915C3.82248 1.83333 1.83331 3.8225 1.83331 7.15917V14.8317C1.83331 18.1775 3.82248 20.1667 7.15915 20.1667H14.8316C18.1683 20.1667 20.1575 18.1775 20.1575 14.8408V7.15917C20.1666 3.8225 18.1775 1.83333 14.8408 1.83333ZM7.79165 5.84833C8.73581 5.84833 9.51498 6.61833 9.51498 7.57167C9.51498 8.525 8.74498 9.295 7.79165 9.295C6.83831 9.295 6.06831 8.50667 6.06831 7.5625C6.06831 6.61833 6.84748 5.84833 7.79165 5.84833ZM11 17.49C8.53415 17.49 6.52665 15.4825 6.52665 13.0167C6.52665 12.375 7.04915 11.8433 7.69081 11.8433H14.2908C14.9325 11.8433 15.455 12.3658 15.455 13.0167C15.4733 15.4825 13.4658 17.49 11 17.49ZM14.2083 9.27667C13.2641 9.27667 12.485 8.50667 12.485 7.55333C12.485 6.6 13.255 5.83 14.2083 5.83C15.1616 5.83 15.9316 6.6 15.9316 7.55333C15.9316 8.50667 15.1525 9.27667 14.2083 9.27667Z" fill="#227900"/>
</g>
<defs>
<clipPath id="clip0_192_228">
<rect width="22" height="22" fill="white"/>
</clipPath>
</defs>
</svg>
