<svg width="22" height="22" viewBox="0 0 22 22" fill="none" xmlns="http://www.w3.org/2000/svg">
<path d="M14.8408 1.83333H7.15915C3.82248 1.83333 1.83331 3.8225 1.83331 7.15917V14.8317C1.83331 18.1775 3.82248 20.1667 7.15915 20.1667H14.8316C18.1683 20.1667 20.1575 18.1775 20.1575 14.8408V7.15917C20.1666 3.8225 18.1775 1.83333 14.8408 1.83333ZM5.93081 7.07667C6.19665 6.81083 6.63665 6.81083 6.90248 7.07667C7.55331 7.7275 8.61665 7.7275 9.26748 7.07667C9.53331 6.81083 9.97331 6.81083 10.2391 7.07667C10.505 7.3425 10.505 7.7825 10.2391 8.04833C9.64331 8.64417 8.86415 8.9375 8.08498 8.9375C7.30581 8.9375 6.52665 8.64417 5.93081 8.04833C5.80296 7.91896 5.73125 7.74439 5.73125 7.5625C5.73125 7.38061 5.80296 7.20604 5.93081 7.07667ZM11 17.215C8.53415 17.215 6.52665 15.2075 6.52665 12.7417C6.52665 12.1 7.04915 11.5683 7.69081 11.5683H14.2908C14.9325 11.5683 15.455 12.0908 15.455 12.7417C15.4733 15.2075 13.4658 17.215 11 17.215ZM16.0691 8.04833C15.4733 8.64417 14.6941 8.9375 13.915 8.9375C13.1358 8.9375 12.3566 8.64417 11.7608 8.04833C11.633 7.91896 11.5613 7.74439 11.5613 7.5625C11.5613 7.38061 11.633 7.20604 11.7608 7.07667C12.0266 6.81083 12.4666 6.81083 12.7325 7.07667C13.3833 7.7275 14.4466 7.7275 15.0975 7.07667C15.3633 6.81083 15.8033 6.81083 16.0691 7.07667C16.335 7.3425 16.335 7.77333 16.0691 8.04833Z" fill="#227900"/>
</svg>
