<svg width="14" height="12" viewBox="0 0 14 12" fill="none" xmlns="http://www.w3.org/2000/svg">
<path d="M13.4618 4.22708C11.8897 1.75667 9.58945 0.334305 7.16667 0.334305C5.95528 0.334305 4.77792 0.688194 3.70264 1.34833C2.62736 2.01528 1.66098 2.98847 0.871531 4.22708C0.190976 5.29555 0.190976 7.03097 0.871531 8.09944C2.44361 10.5767 4.74389 11.9922 7.16667 11.9922C8.37806 11.9922 9.55542 11.6383 10.6307 10.9782C11.706 10.3112 12.6724 9.33806 13.4618 8.09944C14.1424 7.03778 14.1424 5.29555 13.4618 4.22708V4.22708ZM7.16667 8.91611C5.64223 8.91611 4.41723 7.6843 4.41723 6.16667C4.41723 4.64903 5.64223 3.41722 7.16667 3.41722C8.69111 3.41722 9.91611 4.64903 9.91611 6.16667C9.91611 7.6843 8.69111 8.91611 7.16667 8.91611Z" fill="white"/>
<path d="M7.16531 4.22028C6.65 4.22028 6.15579 4.42498 5.79141 4.78936C5.42703 5.15374 5.22232 5.64795 5.22232 6.16326C5.22232 6.67857 5.42703 7.17278 5.79141 7.53716C6.15579 7.90154 6.65 8.10625 7.16531 8.10625C8.23378 8.10625 9.1117 7.23514 9.1117 6.16666C9.1117 5.09819 8.23378 4.22028 7.16531 4.22028V4.22028Z" fill="white"/>
</svg>
