<svg width="11" height="10" viewBox="0 0 11 10" fill="none" xmlns="http://www.w3.org/2000/svg">
<path d="M8.93257 3.14033C8.60735 3.14124 8.29038 3.24272 8.0251 3.43087C7.75982 3.61901 7.55922 3.88459 7.45082 4.19122H0.525446C0.386089 4.19122 0.25244 4.24658 0.153899 4.34512C0.0553593 4.44366 0 4.57731 0 4.71666C0 4.85602 0.0553593 4.98967 0.153899 5.08821C0.25244 5.18675 0.386089 5.24211 0.525446 5.24211H7.45082C7.54721 5.51475 7.71675 5.75562 7.94087 5.93836C8.165 6.1211 8.43507 6.23867 8.72154 6.2782C9.008 6.31773 9.29982 6.27769 9.56506 6.16247C9.83029 6.04725 10.0587 5.86129 10.2254 5.62494C10.392 5.38859 10.4904 5.11096 10.5098 4.82243C10.5292 4.53391 10.4689 4.2456 10.3354 3.98907C10.2019 3.73253 10.0004 3.51766 9.753 3.36796C9.50558 3.21827 9.22175 3.13951 8.93257 3.14033V3.14033ZM8.93257 5.24211C8.82865 5.24211 8.72706 5.21129 8.64065 5.15355C8.55424 5.09582 8.4869 5.01375 8.44713 4.91774C8.40736 4.82173 8.39695 4.71608 8.41723 4.61415C8.4375 4.51223 8.48754 4.4186 8.56103 4.34512C8.63451 4.27163 8.72814 4.22159 8.83007 4.20131C8.93199 4.18104 9.03764 4.19144 9.13365 4.23121C9.22967 4.27098 9.31173 4.33833 9.36947 4.42474C9.4272 4.51115 9.45802 4.61274 9.45802 4.71666C9.45802 4.85602 9.40266 4.98967 9.30412 5.08821C9.20558 5.18675 9.07193 5.24211 8.93257 5.24211Z" fill="#9F9F9F"/>
<path d="M0.525446 2.08942H1.14547C1.25592 2.39373 1.45739 2.65666 1.7225 2.84247C1.9876 3.02828 2.30349 3.12795 2.62723 3.12795C2.95096 3.12795 3.26685 3.02828 3.53196 2.84247C3.79706 2.65666 3.99853 2.39373 4.10898 2.08942H9.98346C10.1228 2.08942 10.2565 2.03406 10.355 1.93552C10.4536 1.83698 10.5089 1.70333 10.5089 1.56398C10.5089 1.42462 10.4536 1.29097 10.355 1.19243C10.2565 1.09389 10.1228 1.03853 9.98346 1.03853H4.10898C3.99853 0.734218 3.79706 0.471291 3.53196 0.285484C3.26685 0.0996768 2.95096 0 2.62723 0C2.30349 0 1.9876 0.0996768 1.7225 0.285484C1.45739 0.471291 1.25592 0.734218 1.14547 1.03853H0.525446C0.386089 1.03853 0.25244 1.09389 0.153899 1.19243C0.0553593 1.29097 0 1.42462 0 1.56398C0 1.70333 0.0553593 1.83698 0.153899 1.93552C0.25244 2.03406 0.386089 2.08942 0.525446 2.08942ZM2.62723 1.03853C2.73115 1.03853 2.83274 1.06935 2.91915 1.12708C3.00556 1.18482 3.07291 1.26688 3.11268 1.3629C3.15245 1.45891 3.16285 1.56456 3.14258 1.66649C3.1223 1.76841 3.07226 1.86204 2.99877 1.93552C2.92529 2.00901 2.83166 2.05905 2.72974 2.07933C2.62781 2.0996 2.52216 2.08919 2.42615 2.04942C2.33014 2.00965 2.24807 1.94231 2.19034 1.8559C2.1326 1.76949 2.10178 1.6679 2.10178 1.56398C2.10178 1.42462 2.15714 1.29097 2.25568 1.19243C2.35422 1.09389 2.48787 1.03853 2.62723 1.03853V1.03853Z" fill="#9F9F9F"/>
<path d="M9.98346 7.34389H6.21077C6.10032 7.03958 5.89885 6.77665 5.63374 6.59084C5.36863 6.40504 5.05275 6.30536 4.72901 6.30536C4.40527 6.30536 4.08939 6.40504 3.82428 6.59084C3.55917 6.77665 3.3577 7.03958 3.24725 7.34389H0.525446C0.386089 7.34389 0.25244 7.39925 0.153899 7.49779C0.0553593 7.59633 0 7.72998 0 7.86934C0 8.00869 0.0553593 8.14234 0.153899 8.24088C0.25244 8.33942 0.386089 8.39478 0.525446 8.39478H3.24725C3.3577 8.69909 3.55917 8.96202 3.82428 9.14783C4.08939 9.33363 4.40527 9.43331 4.72901 9.43331C5.05275 9.43331 5.36863 9.33363 5.63374 9.14783C5.89885 8.96202 6.10032 8.69909 6.21077 8.39478H9.98346C10.1228 8.39478 10.2565 8.33942 10.355 8.24088C10.4536 8.14234 10.5089 8.00869 10.5089 7.86934C10.5089 7.72998 10.4536 7.59633 10.355 7.49779C10.2565 7.39925 10.1228 7.34389 9.98346 7.34389ZM4.72901 8.39478C4.62509 8.39478 4.5235 8.36396 4.43709 8.30623C4.35068 8.24849 4.28333 8.16643 4.24356 8.07041C4.20379 7.9744 4.19339 7.86875 4.21366 7.76683C4.23393 7.6649 4.28398 7.57127 4.35746 7.49779C4.43095 7.4243 4.52457 7.37426 4.6265 7.35399C4.72843 7.33371 4.83408 7.34412 4.93009 7.38389C5.0261 7.42366 5.10816 7.491 5.1659 7.57741C5.22364 7.66382 5.25446 7.76541 5.25446 7.86934C5.25446 8.00869 5.1991 8.14234 5.10056 8.24088C5.00202 8.33942 4.86837 8.39478 4.72901 8.39478Z" fill="#9F9F9F"/>
</svg>
