<svg width="12" height="12" viewBox="0 0 12 12" fill="none" xmlns="http://www.w3.org/2000/svg">
<path d="M11 3.905V6.25H8.96C8.9 6.245 8.77 6.17 8.74 6.115L8.22 5.13C8.015 4.74 7.66 4.52 7.28 4.54C6.9 4.56 6.575 4.815 6.41 5.23L5.72 6.96L5.62 6.7C5.375 6.065 4.675 5.585 3.985 5.585L1 5.6V3.905C1 2.085 2.085 1 3.905 1H8.095C9.915 1 11 2.085 11 3.905Z" fill="white"/>
<path d="M11 8.09449V6.99949H8.95999C8.62499 6.99949 8.22999 6.75949 8.07499 6.46449L7.55499 5.47949C7.41499 5.21449 7.21499 5.22949 7.10499 5.50449L5.95499 8.40949C5.82999 8.73449 5.61998 8.73449 5.48998 8.40949L4.91999 6.96949C4.78499 6.61949 4.36499 6.33449 3.98999 6.33449L0.999985 6.34949V8.09449C0.999985 9.88449 2.04999 10.9645 3.81499 10.9945C3.86999 10.9995 3.92999 10.9995 3.98499 10.9995H7.98499C8.05999 10.9995 8.13499 10.9995 8.20499 10.9945C9.95999 10.9545 11 9.87949 11 8.09449V8.09449ZM0.999985 6.34999V8.00499C0.989985 7.84499 0.984985 7.67499 0.984985 7.49999V6.34999H0.999985Z" fill="white"/>
</svg>
