<svg width="23" height="22" viewBox="0 0 23 22" fill="none" xmlns="http://www.w3.org/2000/svg">
<path d="M21.1111 7.06957L15.507 1.6653C14.9263 1.10376 14.2298 0.666014 13.4627 0.380367C12.6955 0.0947195 11.8747 -0.0324666 11.0534 0.00703433L4.86783 0.293353C2.39361 0.400723 0.426603 2.29759 0.302892 4.67165L0.00598573 10.6366C-0.0682409 12.2352 0.550314 13.7981 1.72557 14.9314L7.32968 20.3357C8.43815 21.4015 9.93961 22 11.5049 22C13.0702 22 14.5717 21.4015 15.6802 20.3357L21.1111 15.0984C21.6608 14.5729 22.0972 13.9476 22.395 13.2586C22.6928 12.5696 22.8462 11.8305 22.8462 11.084C22.8462 10.3375 22.6928 9.59844 22.395 8.90942C22.0972 8.2204 21.6608 7.59508 21.1111 7.06957ZM8.33174 11.4598C6.3771 11.4598 4.76886 9.92083 4.76886 8.02397C4.76886 6.12711 6.3771 4.58814 8.33174 4.58814C10.2864 4.58814 11.8946 6.12711 11.8946 8.02397C11.8946 9.92083 10.2864 11.4598 8.33174 11.4598ZM18.2657 12.8317L13.3173 17.6037C13.1317 17.7827 12.8967 17.8662 12.6616 17.8662C12.4266 17.8662 12.1915 17.7827 12.006 17.6037C11.8334 17.4354 11.7366 17.2082 11.7366 16.9714C11.7366 16.7347 11.8334 16.5075 12.006 16.3392L16.9544 11.5672C17.3132 11.2212 17.907 11.2212 18.2657 11.5672C18.6245 11.9131 18.6245 12.4858 18.2657 12.8317Z" fill="#227900"/>
</svg>
