<svg width="24" height="24" viewBox="0 0 24 24" fill="none" xmlns="http://www.w3.org/2000/svg">
<rect width="24" height="24" rx="7" fill="#227900"/>
<g clip-path="url(#clip0_801_776)">
<path d="M16.5438 15.5187L16.7875 17.4937C16.85 18.0125 16.2938 18.375 15.85 18.1062L13.2313 16.55C12.9438 16.55 12.6625 16.5312 12.3875 16.4937C12.8613 15.9446 13.1229 15.244 13.125 14.5187C13.125 12.7437 11.5875 11.3063 9.68752 11.3063C8.96252 11.3063 8.29377 11.5125 7.73752 11.875C7.71877 11.7188 7.71252 11.5625 7.71252 11.4C7.71252 8.55625 10.1813 6.25 13.2313 6.25C16.2813 6.25 18.75 8.55625 18.75 11.4C18.75 13.0875 17.8813 14.5812 16.5438 15.5187Z" stroke="white" stroke-width="1.5" stroke-linecap="round" stroke-linejoin="round"/>
<path d="M13.125 14.5187C13.125 15.2624 12.85 15.9499 12.3875 16.4937C11.7687 17.2437 10.7875 17.7249 9.6875 17.7249L8.05625 18.6937C7.78125 18.8624 7.43125 18.6312 7.46875 18.3124L7.625 17.0812C6.7875 16.4999 6.25 15.5687 6.25 14.5187C6.25 13.4187 6.8375 12.4499 7.7375 11.8749C8.29375 11.5124 8.9625 11.3062 9.6875 11.3062C11.5875 11.3062 13.125 12.7437 13.125 14.5187Z" stroke="white" stroke-width="1.5" stroke-linecap="round" stroke-linejoin="round"/>
</g>
<defs>
<clipPath id="clip0_801_776">
<rect width="15" height="15" fill="white" transform="translate(5 5)"/>
</clipPath>
</defs>
</svg>
