<svg width="22" height="19" viewBox="0 0 22 19" fill="none" xmlns="http://www.w3.org/2000/svg">
<path d="M12.375 4.07143C12.375 5.15124 11.9404 6.18682 11.1668 6.95036C10.3932 7.7139 9.34402 8.14286 8.25 8.14286C7.15598 8.14286 6.10677 7.7139 5.33318 6.95036C4.5596 6.18682 4.125 5.15124 4.125 4.07143C4.125 2.99162 4.5596 1.95603 5.33318 1.19249C6.10677 0.428953 7.15598 0 8.25 0C9.34402 0 10.3932 0.428953 11.1668 1.19249C11.9404 1.95603 12.375 2.99162 12.375 4.07143V4.07143ZM16.5 19C16.5 16.8404 15.6308 14.7692 14.0836 13.2421C12.5365 11.715 10.438 10.8571 8.25 10.8571C6.06196 10.8571 3.96354 11.715 2.41637 13.2421C0.869194 14.7692 3.26043e-08 16.8404 0 19H16.5ZM15.125 6.78571C14.7603 6.78571 14.4106 6.9287 14.1527 7.18321C13.8949 7.43773 13.75 7.78292 13.75 8.14286C13.75 8.50279 13.8949 8.84799 14.1527 9.1025C14.4106 9.35702 14.7603 9.5 15.125 9.5H20.625C20.9897 9.5 21.3394 9.35702 21.5973 9.1025C21.8551 8.84799 22 8.50279 22 8.14286C22 7.78292 21.8551 7.43773 21.5973 7.18321C21.3394 6.9287 20.9897 6.78571 20.625 6.78571H15.125Z" fill="#227900"/>
</svg>
