<svg width="14" height="14" viewBox="0 0 14 14" fill="none" xmlns="http://www.w3.org/2000/svg">
<path d="M10.5 1.16675H3.5C2.53167 1.16675 1.75 1.94258 1.75 2.89925V9.26341C1.75 10.2201 2.53167 10.9959 3.5 10.9959H3.94333C4.41 10.9959 4.85333 11.1767 5.18 11.5034L6.1775 12.4892C6.6325 12.9384 7.37333 12.9384 7.82833 12.4892L8.82583 11.5034C9.1525 11.1767 9.60167 10.9959 10.0625 10.9959H10.5C11.4683 10.9959 12.25 10.2201 12.25 9.26341V2.89925C12.25 1.94258 11.4683 1.16675 10.5 1.16675ZM7 3.35425C7.7525 3.35425 8.35917 3.96091 8.35917 4.71341C8.35917 5.46591 7.7525 6.07258 7 6.07258C6.2475 6.07258 5.64083 5.46008 5.64083 4.71341C5.64083 3.96091 6.2475 3.35425 7 3.35425ZM8.56333 8.78508H5.43667C4.96417 8.78508 4.69 8.26008 4.9525 7.86925C5.34917 7.28008 6.11917 6.88341 7 6.88341C7.88083 6.88341 8.65083 7.28008 9.0475 7.86925C9.31 8.26008 9.03 8.78508 8.56333 8.78508Z" fill="#227900"/>
<path d="M10.5 1.16675H3.5C2.53167 1.16675 1.75 1.94258 1.75 2.89925V9.26341C1.75 10.2201 2.53167 10.9959 3.5 10.9959H3.94333C4.41 10.9959 4.85333 11.1767 5.18 11.5034L6.1775 12.4892C6.6325 12.9384 7.37333 12.9384 7.82833 12.4892L8.82583 11.5034C9.1525 11.1767 9.60167 10.9959 10.0625 10.9959H10.5C11.4683 10.9959 12.25 10.2201 12.25 9.26341V2.89925C12.25 1.94258 11.4683 1.16675 10.5 1.16675ZM7 3.35425C7.7525 3.35425 8.35917 3.96091 8.35917 4.71341C8.35917 5.46591 7.7525 6.07258 7 6.07258C6.2475 6.07258 5.64083 5.46008 5.64083 4.71341C5.64083 3.96091 6.2475 3.35425 7 3.35425ZM8.56333 8.78508H5.43667C4.96417 8.78508 4.69 8.26008 4.9525 7.86925C5.34917 7.28008 6.11917 6.88341 7 6.88341C7.88083 6.88341 8.65083 7.28008 9.0475 7.86925C9.31 8.26008 9.03 8.78508 8.56333 8.78508Z" fill="#227900"/>
</svg>
