<svg width="11" height="11" viewBox="0 0 11 11" fill="none" xmlns="http://www.w3.org/2000/svg">
<path d="M10.1646 3.53479L7.46632 0.83265C7.18673 0.551881 6.8514 0.333007 6.48203 0.190183C6.11265 0.0473597 5.71746 -0.0162333 5.322 0.00351717L2.34377 0.146677C1.15248 0.200362 0.205402 1.14879 0.145837 2.33582L0.00288202 5.31832C-0.0328567 6.11762 0.264966 6.89904 0.830829 7.46571L3.5291 10.1678C4.06281 10.7007 4.78574 11 5.53941 11C6.29308 11 7.016 10.7007 7.54971 10.1678L10.1646 7.54922C10.4293 7.28646 10.6394 6.97381 10.7828 6.62929C10.9262 6.28478 11 5.91524 11 5.542C11 5.16876 10.9262 4.79922 10.7828 4.45471C10.6394 4.1102 10.4293 3.79754 10.1646 3.53479ZM4.01158 5.7299C3.78622 5.72982 3.56309 5.68529 3.35492 5.59886C3.14674 5.51242 2.95761 5.38577 2.79832 5.22614C2.47661 4.90374 2.29596 4.46657 2.29612 4.01079C2.29628 3.55501 2.47722 3.11797 2.79916 2.7958C3.12109 2.47362 3.55764 2.29272 4.01277 2.29288C4.46789 2.29304 4.90432 2.47424 5.22603 2.79664C5.54774 3.11903 5.72838 3.55621 5.72823 4.01198C5.72807 4.46776 5.54712 4.90481 5.22519 5.22698C4.90325 5.54915 4.4667 5.73006 4.01158 5.7299Z" fill="#F8F8F8"/>
</svg>
