<svg width="26" height="18" viewBox="0 0 26 18" fill="none" xmlns="http://www.w3.org/2000/svg">
<path d="M18.85 9C20.644 9 22.087 7.56 22.087 5.78571C22.087 4.01143 20.644 2.57143 18.85 2.57143C17.056 2.57143 15.6 4.01143 15.6 5.78571C15.6 7.56 17.056 9 18.85 9ZM9.1 7.71429C11.258 7.71429 12.987 5.99143 12.987 3.85714C12.987 1.72286 11.258 0 9.1 0C6.942 0 5.2 1.72286 5.2 3.85714C5.2 5.99143 6.942 7.71429 9.1 7.71429ZM18.85 11.5714C16.471 11.5714 11.7 12.7543 11.7 15.1071V18H26V15.1071C26 12.7543 21.229 11.5714 18.85 11.5714ZM9.1 10.2857C6.071 10.2857 0 11.79 0 14.7857V18H9.1V15.1071C9.1 14.0143 9.529 12.0986 12.181 10.6457C11.05 10.4143 9.958 10.2857 9.1 10.2857Z" fill="#227900"/>
</svg>
