<svg width="15" height="15" viewBox="0 0 15 15" fill="none" xmlns="http://www.w3.org/2000/svg">
<path d="M9.375 1.25H5.625C2.5 1.25 1.25 2.5 1.25 5.625V9.375C1.25 11.7375 1.9625 13.0313 3.6625 13.5125C3.8 11.8875 5.46875 10.6062 7.5 10.6062C9.53125 10.6062 11.2 11.8875 11.3375 13.5125C13.0375 13.0313 13.75 11.7375 13.75 9.375V5.625C13.75 2.5 12.5 1.25 9.375 1.25ZM7.5 8.85625C6.2625 8.85625 5.2625 7.85 5.2625 6.6125C5.2625 5.375 6.2625 4.375 7.5 4.375C8.7375 4.375 9.7375 5.375 9.7375 6.6125C9.7375 7.85 8.7375 8.85625 7.5 8.85625Z" stroke="white" stroke-width="1.5" stroke-linecap="round" stroke-linejoin="round"/>
</svg>
